<?xml version="1.0" encoding="UTF-8"?>
<svg id="_레이어_2" data-name="레이어 2" xmlns="http://www.w3.org/2000/svg" viewBox="0 0 115.1 48.03">
  <defs>
    <style>
      .cls-1 {
        fill: #231915;
      }
    </style>
  </defs>
  <g id="Layer_1" data-name="Layer 1">
    <g>
      <rect class="cls-1" x="46.7" y="16.84" width="3.39" height="28.31"/>
      <polyline class="cls-1" points="53.1 17.4 60.89 17.4 60.89 15.27 64.14 15.27 64.14 17.4 71.67 17.4 71.67 20.92 63.7 20.92 71.92 23.94 70.54 26.95 62.76 24.06 54.61 26.95 52.84 24.18 61.57 20.92 53.1 20.92 53.1 17.4"/>
      <polyline class="cls-1" points="52.84 27.63 52.84 30.83 60.81 30.83 60.81 32.53 52.84 32.53 52.84 35.86 68.28 35.86 68.28 37.11 52.84 37.11 52.84 45.14 71.92 45.14 71.92 41.63 56.75 41.63 56.75 40.12 71.92 40.12 71.92 32.53 64.39 32.53 64.39 30.83 71.92 30.83 71.92 27.63 52.84 27.63"/>
      <path class="cls-1" d="M79.27,27.19h1.94v-6.27h-1.94v6.27M86.11,17.47v3.57h-2.01v6.28h2.01v3.26h-11.8v-3.51h2.13v-6.15h-2.13v-3.45h11.8"/>
      <polyline class="cls-1" points="88.43 16.59 88.43 37.23 91.7 37.23 91.7 26.13 94.26 26.13 94.26 22.54 91.7 22.54 91.7 16.59 88.43 16.59"/>
      <polyline class="cls-1" points="79.77 35.47 76.58 35.47 76.58 45.14 91.76 45.14 91.76 41.89 79.77 41.89 79.77 35.47"/>
      <polyline class="cls-1" points="100.35 15.53 92.5 35.45 95.33 36.54 100.35 24.18 105 36.54 107.82 35.45 100.35 15.53"/>
      <polyline class="cls-1" points="108.63 16.59 108.63 45.14 111.96 45.14 111.96 26.13 115.1 26.13 115.1 22.54 111.96 22.54 111.96 16.59 108.63 16.59"/>
      <path class="cls-1" d="M19.52,44.89h-1.94l3.07-7.46v-12.24h1.88v8.03l3.39-8.03h2.01l-8.41,19.71M11.9,31.37c0-5.19,2.83-6.14,3.9-6.14,2,0,3.95,1.07,3.95,7.44h-6.26c0,1.78,1.03,3.5,2.33,3.5,1.95,0,2.11-1.84,2.11-1.84h1.59c0,2.12-2.19,3.42-3.6,3.42s-4.01-1.19-4.01-6.39M10.93,37.86l-3.95-7.84v7.84h-1.88v-15.32h1.88v7.48l4.08-7.73h2.19l-4.14,7.67,3.77,7.9h-1.95M17.52,15.65c-7.74-.01-15.43,7.23-17.17,16.17-1.73,8.96,3.15,16.21,10.89,16.22,7.75.01,15.42-7.23,17.17-16.17,1.73-8.94-3.14-16.2-10.89-16.21"/>
      <path class="cls-1" d="M15.82,27.04c-2.69,0-2.36,4.31-2.36,4.31h4.73s.33-4.31-2.37-4.31"/>
      <polyline class="cls-1" points="30.75 17.47 30.75 20.92 40.8 20.92 38.79 25.44 38.77 25.44 37.35 28.76 33.71 36.98 36.84 38.36 46.07 17.47 30.75 17.47"/>
      <rect class="cls-1" x="31.2" y="24.87" width="6.15" height="3.89"/>
      <path class="cls-1" d="M13.27,5.31c-.2,1.15-.33,1.86-.39,2.13h-1.64c.02-.07.11-.65.27-1.73.16-1.07.25-2.08.27-2.97h-6.89v-1.51h8.69c0,1.57-.11,2.93-.31,4.08M3.79,10.31v-1.49h2.32v-3.75h1.67v3.75h1.09v-3.75h1.68v3.75h4.13v1.49H3.79"/>
      <path class="cls-1" d="M21.86,8.08v-1.24h-2.37v1.24h2.37M23.12,2.37c0-.31-.24-.56-.69-.74-.46-.2-1.04-.29-1.77-.29s-1.28.1-1.75.3c-.46.19-.69.44-.69.74,0,.27.22.52.65.72.45.2,1.04.3,1.79.3s1.37-.1,1.8-.3c.43-.21.66-.45.66-.72M20.66,0c1.35,0,2.41.22,3.19.68.78.45,1.18,1.01,1.18,1.68,0,.72-.39,1.28-1.18,1.71-.77.43-1.84.63-3.19.63s-2.37-.21-3.16-.63c-.8-.43-1.2-.99-1.2-1.72,0-.66.4-1.22,1.2-1.67.79-.46,1.85-.68,3.16-.68M26.11,6.83h-2.6v1.24h1.34v3.46h-1.68v-1.96h-6.74v-1.49h1.41v-1.24h-2.61v-1.5h10.87v1.5"/>
      <path class="cls-1" d="M31.17,5.23h2.33c.95,0,1.46-.45,1.46-1.52s-.51-1.47-1.46-1.47h-2.33v3M29.03.42h5.22c1.74,0,2.84,1.32,2.84,2.92,0,1.26-.47,2.2-1.54,2.67v.04c1.05.29,1.35,1.4,1.42,2.48.03.67.03,1.93.39,2.52h-2.12c-.26-.67-.22-1.7-.34-2.55-.15-1.12-.55-1.61-1.62-1.61h-2.12v4.16h-2.14V.42"/>
      <path class="cls-1" d="M41.35,3.3c-.37,0-.69.31-.69.75,0,.54.3.89.6,1.29.44-.31.79-.61.79-1.23,0-.45-.32-.81-.71-.81M40.8,7.03c-.54.26-1.09.72-1.09,1.41,0,.63.53,1.13,1.12,1.13.55,0,.95-.32,1.3-.76l-1.33-1.79M42.95,9.95c-.63.68-1.32,1.02-2.19,1.02-1.41,0-2.52-.95-2.52-2.56,0-1.19.83-2.01,1.75-2.47-.42-.57-.75-1.07-.75-1.83,0-1.19,1-1.96,2.03-1.96,1.17,0,2.14.7,2.14,2.05,0,.99-.6,1.68-1.38,2.13l1,1.36c.15-.31.24-.66.29-1.02h1.34c-.08.77-.33,1.51-.76,2.11l1.58,2.03h-1.89l-.62-.86"/>
      <path class="cls-1" d="M48.42,9.08h1.9c1.24,0,2.42-.84,2.42-3.19,0-2.15-.69-3.52-2.8-3.52h-1.52v6.71M46.3.42h4.17c2.51,0,4.4,1.72,4.4,5.26,0,3.08-1.44,5.38-4.4,5.38h-4.17V.42"/>
      <path class="cls-1" d="M66.38,11.53h-1.38V.08h1.38v11.45M60.27,5.42c0-.83-.09-1.53-.3-2.09-.21-.57-.48-.84-.83-.84s-.64.27-.83.83c-.21.57-.31,1.26-.31,2.11s.11,1.52.31,2.09c.2.57.47.85.83.85s.62-.28.83-.85c.21-.56.3-1.26.3-2.09M61.58,4.33h1.12V.34h1.4v10.67h-1.4v-5.15h-1.06c-.05,1.21-.3,2.15-.76,2.83-.46.67-1.04,1-1.77,1s-1.33-.37-1.8-1.12c-.47-.75-.7-1.8-.7-3.14s.22-2.36.67-3.15c.45-.77,1.07-1.15,1.82-1.15.64,0,1.18.28,1.64.86.43.57.71,1.34.83,2.34"/>
      <path class="cls-1" d="M80.84,4.03h-1.48v2.36h-1.65V.08h1.65v2.46h1.48v1.49M76.72,8.36h-2.36l.13,1.56h2.11l.13-1.56M74.58,3.23c0-.39-.12-.73-.37-1.02-.26-.29-.61-.44-1.07-.44s-.82.14-1.07.44c-.26.29-.38.63-.38,1.02s.12.74.38,1.01c.25.29.6.43,1.07.43s.82-.14,1.07-.43c.25-.28.37-.62.37-1.01M79.75,11.4h-8.45v-1.49h1.54l-.14-1.56h-1.23v-1.46h8.11v1.46h-1.22l-.14,1.56h1.52v1.49M76.24,3.23c0,.8-.29,1.48-.87,2.05-.58.57-1.33.85-2.23.85s-1.65-.28-2.23-.85c-.59-.57-.88-1.25-.88-2.05s.29-1.49.88-2.06c.58-.58,1.33-.86,2.23-.86s1.64.28,2.23.86c.58.57.87,1.27.87,2.06"/>
      <path class="cls-1" d="M89.63,11.53v-6.3h-2.16v-1.63h2.16V.08h1.66v11.45h-1.66M87.58,9.5c-.45-.28-.93-.65-1.46-1.15-.52-.51-.94-1.06-1.25-1.7-.24.63-.63,1.21-1.17,1.76-.54.55-1.02.95-1.43,1.19l-1.23-1.12c.63-.36,1.28-.95,1.94-1.75.66-.81.99-1.92.99-3.34V.7h1.76v2.7c0,1.42.34,2.49,1.01,3.26.69.76,1.29,1.29,1.84,1.62l-1,1.22"/>
      <path class="cls-1" d="M102.17,6.19v5.34h-1.66V.08h1.66v4.52h1.54v1.59h-1.54M97.45,6.51c-1.02,1.42-2.18,2.46-3.49,3.1l-1.29-1.01c1.31-.58,2.36-1.43,3.14-2.55.79-1.12,1.18-2.22,1.18-3.3h-3.62v-1.48h5.61c0,2.06-.51,3.8-1.53,5.23"/>
      <path class="cls-1" d="M113.95,11.26h-8.6v-3.49h1.66v2h6.94v1.49M113.71,4.33h-8.37V.16h1.66v2.69h6.7v1.48M114.89,7h-10.87v-1.5h10.87v1.5"/>
    </g>
  </g>
</svg>